HIERARCHY
ROOT joint_Root
{
	OFFSET 0.0 0.0 0.0
	CHANNELS 6 Xposition Yposition Zposition Zrotation Xrotation Yrotation 
	JOINT Hips
	{
		OFFSET -17.1583 93.1646 452.98
		CHANNELS 6 Xposition Yposition Zposition Zrotation Xrotation Yrotation 
		JOINT Spine
		{
			OFFSET 15.7357 0.0 0.0
			CHANNELS 6 Xposition Yposition Zposition Zrotation Xrotation Yrotation 
			JOINT Chest
			{
				OFFSET 8.98455 -0.406207 0.0
				CHANNELS 6 Xposition Yposition Zposition Zrotation Xrotation Yrotation 
				JOINT Neck
				{
					OFFSET 16.3773 0.0 0.0
					CHANNELS 6 Xposition Yposition Zposition Zrotation Xrotation Yrotation 
					JOINT Head
					{
						OFFSET 6.45672 0.0 0.0
						CHANNELS 6 Xposition Yposition Zposition Zrotation Xrotation Yrotation 
						End Site
						{
							OFFSET 0.0 0.0 0.0
						}
					}
				}
				JOINT Shoulder_L
				{
					OFFSET 12.9942 -0.242716 4.98039
					CHANNELS 6 Xposition Yposition Zposition Zrotation Xrotation Yrotation 
					JOINT UpperArm_L
					{
						OFFSET 5.34809 0.0 0.0
						CHANNELS 6 Xposition Yposition Zposition Zrotation Xrotation Yrotation 
						JOINT LowerArm_L
						{
							OFFSET 24.3286 1.87007e-05 0.0
							CHANNELS 6 Xposition Yposition Zposition Zrotation Xrotation Yrotation 
							JOINT Hand_L
							{
								OFFSET 22.2916 0.0 0.0
								CHANNELS 6 Xposition Yposition Zposition Zrotation Xrotation Yrotation 
								End Site
								{
									OFFSET 0.0 0.0 0.0
								}
							}
						}
					}
				}
				JOINT Shoulder_R
				{
					OFFSET 12.9945 -0.242716 -4.98039
					CHANNELS 6 Xposition Yposition Zposition Zrotation Xrotation Yrotation 
					JOINT UpperArm_R
					{
						OFFSET -5.34813 0.0 0.0
						CHANNELS 6 Xposition Yposition Zposition Zrotation Xrotation Yrotation 
						JOINT LowerArm_R
						{
							OFFSET -24.3289 0.000322201 0.0
							CHANNELS 6 Xposition Yposition Zposition Zrotation Xrotation Yrotation 
							JOINT Hand_R
							{
								OFFSET -22.2915 -0.000108084 0.0
								CHANNELS 6 Xposition Yposition Zposition Zrotation Xrotation Yrotation 
								End Site
								{
									OFFSET 0.0 0.0 0.0
								}
							}
						}
					}
				}
			}
		}
		JOINT UpperLeg_L
		{
			OFFSET -2.19248 -6.46944 0.0
			CHANNELS 6 Xposition Yposition Zposition Zrotation Xrotation Yrotation 
			JOINT LowerLeg_L
			{
				OFFSET 39.0811 0.0 -1.23785e-05
				CHANNELS 6 Xposition Yposition Zposition Zrotation Xrotation Yrotation 
				JOINT Foot_L
				{
					OFFSET 40.9854 0.0 -1.26872e-05
					CHANNELS 6 Xposition Yposition Zposition Zrotation Xrotation Yrotation 
					JOINT Toes_L
					{
						OFFSET 11.7543 0.0 0.0
						CHANNELS 6 Xposition Yposition Zposition Zrotation Xrotation Yrotation 
						End Site
						{
							OFFSET 0.0 0.0 0.0
						}
					}
				}
			}
		}
		JOINT UpperLeg_R
		{
			OFFSET -2.19251 6.46944 0.0
			CHANNELS 6 Xposition Yposition Zposition Zrotation Xrotation Yrotation 
			JOINT LowerLeg_R
			{
				OFFSET -39.0811 -0.00228153 -0.0401928
				CHANNELS 6 Xposition Yposition Zposition Zrotation Xrotation Yrotation 
				JOINT Foot_R
				{
					OFFSET -40.9854 0.0 0.0
					CHANNELS 6 Xposition Yposition Zposition Zrotation Xrotation Yrotation 
					JOINT Toes_R
					{
						OFFSET -11.7543 0.0 0.0
						CHANNELS 6 Xposition Yposition Zposition Zrotation Xrotation Yrotation 
						End Site
						{
							OFFSET 0.0 0.0 0.0
						}
					}
				}
			}
		}
	}
}
MOTION
Frames:	6
Frame Time:	0.0333333
0.000000 0.000000 0.000000 0.000000 0.000000 -0.000000 -210.155000 91.981900 168.410000 45.564400 86.119500 50.469500 15.735700 0.000005 -0.000001 74.268000 84.268900 -72.860100 8.984550 -0.406207 -0.000000 3.311470 -3.159030 2.904540 16.377300 -0.000001 -0.000001 10.588200 5.731290 -3.491110 6.456720 -0.000001 -0.000000 -2.011420 8.306620 1.036380 12.994200 -0.242716 4.980390 -93.071400 8.303930 -69.618800 5.348090 -0.000007 -0.000001 -76.445500 -3.626910 -0.624242 24.328600 0.000019 0.000005 38.285200 22.861900 -63.790400 22.291600 -0.000001 0.000005 46.900100 4.562420 15.554200 12.994500 -0.242716 -4.980390 88.459300 3.802030 -67.921000 -5.348130 -0.000001 -0.000004 -69.656300 -1.212000 4.533900 -24.328900 0.000322 -0.000009 -0.653101 -3.209290 -11.491500 -22.291500 -0.000108 -0.000004 47.008600 5.540930 -8.285340 -2.192480 -6.469440 -0.000000 179.361000 -4.510130 3.695270 39.081100 -0.000007 -0.000012 0.271076 -0.696837 21.257100 40.985400 -0.000006 -0.000013 8.603160 11.374500 -72.802100 11.754300 -0.000000 0.000003 -0.000231 0.171423 -9.623800 -2.192510 6.469440 -0.000001 -176.764000 -10.846300 158.785000 -39.081100 -0.002282 -0.040193 -0.051495 0.062988 41.008100 -40.985400 0.000008 0.000006 -2.159930 -18.771800 -64.191400 -11.754300 -0.000006 -0.000006 -0.003219 0.210721 -8.022550
0.000000 0.000000 0.000000 0.000000 0.000000 -0.000000 -207.711000 91.675700 168.630000 48.888800 85.965000 46.672300 15.735700 0.000005 -0.000001 73.809800 84.358600 -72.560500 8.984550 -0.406207 -0.000000 3.109580 -3.193410 2.583150 16.377300 -0.000001 -0.000001 10.564600 5.736210 -3.460730 6.456720 -0.000001 -0.000000 -2.032770 8.289020 1.452730 12.994200 -0.242716 4.980390 -93.091600 8.321950 -69.536200 5.348090 -0.000007 -0.000001 -75.861000 -5.130350 -0.841804 24.328600 0.000019 0.000005 41.982800 18.987300 -70.120500 22.291600 -0.000001 0.000005 47.325000 4.534830 16.019300 12.994500 -0.242716 -4.980390 88.591800 3.494250 -68.034600 -5.348130 -0.000001 -0.000004 -68.185200 -3.825820 7.312000 -24.328900 0.000322 -0.000009 -0.534128 -2.620790 -11.501500 -22.291500 -0.000108 -0.000004 47.246400 5.540590 -8.269850 -2.192480 -6.469440 -0.000000 -179.895000 -6.863260 5.476050 39.081100 -0.000007 -0.000012 0.264380 -0.708503 20.463800 40.985400 -0.000006 -0.000013 9.138710 13.422200 -74.394300 11.754300 -0.000000 0.000003 -0.000714 0.178890 -9.320450 -2.192510 6.469440 -0.000001 -177.099000 -12.160200 158.585000 -39.081100 -0.002282 -0.040193 -0.020359 0.039451 30.951600 -40.985400 0.000008 0.000006 -2.216180 -15.488800 -63.392200 -11.754300 -0.000006 -0.000006 -0.003402 0.212742 -7.940270
0.000000 0.000000 0.000000 0.000000 0.000000 -0.000000 -205.148000 91.198900 168.864000 54.164400 85.717000 40.811400 15.735700 0.000005 -0.000001 73.702200 84.478400 -72.606700 8.984550 -0.406207 -0.000000 2.868310 -3.142930 2.267990 16.377300 -0.000001 -0.000001 10.437600 5.751680 -3.493740 6.456720 -0.000001 -0.000000 -2.275830 8.250050 1.681480 12.994200 -0.242716 4.980390 -93.178600 8.486750 -69.379200 5.348090 -0.000007 -0.000001 -74.820600 -6.514370 -1.444730 24.328600 0.000019 0.000005 44.023800 15.884200 -74.188000 22.291600 -0.000001 0.000005 48.061500 4.495310 16.675300 12.994500 -0.242716 -4.980390 88.638400 3.417900 -68.264100 -5.348130 -0.000001 -0.000004 -66.380400 -5.999220 9.473420 -24.328900 0.000322 -0.000009 -0.469357 -2.410160 -10.999600 -22.291500 -0.000108 -0.000004 47.634400 5.537640 -8.136580 -2.192480 -6.469440 -0.000000 -179.502000 -8.154820 7.047020 39.081100 -0.000007 -0.000012 0.270724 -0.741496 20.058000 40.985400 -0.000006 -0.000013 9.498090 14.307600 -76.125400 11.754300 -0.000000 0.000003 -0.000888 0.181433 -9.217090 -2.192510 6.469440 -0.000001 -177.136000 -12.404500 158.430000 -39.081100 -0.002282 -0.040193 -0.005399 0.021925 21.682000 -40.985400 0.000008 0.000006 -2.400860 -14.133100 -62.458500 -11.754300 -0.000006 -0.000006 -0.003346 0.212126 -7.965350
0.000000 0.000000 0.000000 0.000000 0.000000 -0.000000 -202.378000 90.575000 169.103000 59.708300 85.197300 34.628500 15.735700 0.000005 -0.000001 74.235000 84.617400 -73.214000 8.984550 -0.406207 -0.000000 2.624660 -2.968110 2.108240 16.377300 -0.000001 -0.000001 10.176100 5.888730 -3.554450 6.456720 -0.000001 -0.000000 -2.584850 8.267090 1.556990 12.994200 -0.242716 4.980390 -93.228900 8.568630 -69.261600 5.348090 -0.000007 -0.000001 -73.995000 -8.191770 -2.130770 24.328600 0.000019 0.000005 46.089000 14.493300 -76.453800 22.291600 -0.000001 0.000005 49.165200 4.414130 17.995700 12.994500 -0.242716 -4.980390 88.664600 3.390990 -68.491000 -5.348130 -0.000001 -0.000004 -64.691200 -7.646300 10.802800 -24.328900 0.000322 -0.000009 -0.499209 -2.824530 -10.007500 -22.291500 -0.000108 -0.000004 48.273600 5.531320 -7.857130 -2.192480 -6.469440 -0.000000 -179.081000 -9.337570 8.730220 39.081100 -0.000007 -0.000012 0.273728 -0.765426 19.678500 40.985400 -0.000006 -0.000013 9.814050 14.847900 -77.925400 11.754300 -0.000000 0.000003 -0.000710 0.178830 -9.322860 -2.192510 6.469440 -0.000001 -176.028000 -10.319400 158.323000 -39.081100 -0.002282 -0.040193 0.000993 0.009198 14.265700 -40.985400 0.000008 0.000006 -2.623080 -12.607900 -61.547600 -11.754300 -0.000006 -0.000006 -0.003668 0.215607 -7.823640
0.000000 0.000000 0.000000 0.000000 0.000000 -0.000000 -199.286000 89.941800 169.322000 62.478500 84.915000 31.417900 15.735700 0.000005 -0.000001 73.844100 84.674300 -72.818300 8.984550 -0.406207 -0.000000 2.495560 -3.008520 2.115420 16.377300 -0.000001 -0.000001 9.781950 6.044530 -3.763390 6.456720 -0.000001 -0.000000 -2.727460 8.399270 1.334120 12.994200 -0.242716 4.980390 -93.267200 8.658540 -69.233700 5.348090 -0.000007 -0.000001 -73.421600 -9.846590 -2.620720 24.328600 0.000019 0.000005 45.235000 14.173700 -76.349000 22.291600 -0.000001 0.000005 50.627400 4.378270 18.568100 12.994500 -0.242716 -4.980390 88.650400 3.454860 -68.647400 -5.348130 -0.000001 -0.000004 -63.191000 -8.842430 11.330500 -24.328900 0.000322 -0.000009 -0.573923 -3.706270 -8.794730 -22.291500 -0.000108 -0.000004 49.140400 5.523480 -7.511600 -2.192480 -6.469440 -0.000000 -178.544000 -10.304600 11.758200 39.081100 -0.000007 -0.000012 0.241977 -0.760890 17.642200 40.985400 -0.000006 -0.000013 10.016000 15.635100 -79.603000 11.754300 -0.000000 0.000003 -0.000032 0.168155 -9.756510 -2.192510 6.469440 -0.000001 -174.159000 -6.449800 158.142000 -39.081100 -0.002282 -0.040193 0.003404 -0.000359 10.410900 -40.985400 0.000008 0.000006 -3.441950 -7.433180 -61.997700 -11.754300 -0.000006 -0.000006 -0.003517 0.213991 -7.889440
0.000000 0.000000 0.000000 0.000000 0.000000 -0.000000 -195.866000 89.356600 169.558000 61.341500 85.414000 32.022200 15.735700 0.000005 -0.000001 71.104500 84.743400 -70.041800 8.984550 -0.406207 -0.000000 2.217460 -3.453650 2.190810 16.377300 -0.000001 -0.000001 9.435380 6.053020 -4.032270 6.456720 -0.000001 -0.000000 -2.769480 8.494010 1.110320 12.994200 -0.242716 4.980390 -93.298100 8.791470 -69.341900 5.348090 -0.000007 -0.000001 -72.958800 -11.092700 -2.938140 24.328600 0.000019 0.000005 42.568800 15.298000 -73.972500 22.291600 -0.000001 0.000005 52.134600 4.354520 18.941900 12.994500 -0.242716 -4.980390 88.562100 3.667410 -68.574000 -5.348130 -0.000001 -0.000004 -61.996300 -10.092500 11.360600 -24.328900 0.000322 -0.000009 -0.617523 -4.515530 -7.783250 -22.291500 -0.000108 -0.000004 49.961300 5.521340 -7.420010 -2.192480 -6.469440 -0.000000 -177.363000 -9.987660 13.906000 39.081100 -0.000007 -0.000012 0.022151 -0.074275 16.606300 40.985400 -0.000006 -0.000013 2.742910 18.779600 -77.224000 11.754300 -0.000000 0.000003 2.235450 3.365910 -13.277100 -2.192510 6.469440 -0.000001 -173.612000 -5.413580 157.191000 -39.081100 -0.002282 -0.040193 0.003004 0.001842 10.275600 -40.985400 0.000008 0.000006 -3.445810 -4.676190 -62.980200 -11.754300 -0.000006 -0.000006 -0.003595 0.214830 -7.855260
